0
SECTION
2
HEADER
9
$ACADVER
1
AC1021
9
$LASTSAVEDBY
1
@tarikjabiri/dxf
9
$HANDSEED
5
E4
9
$INSUNITS
70
4
9
$CLAYER
8
0
9
$VIEWCTR
10
17950
20
-11950
0
ENDSEC
0
SECTION
2
CLASSES
0
ENDSEC
0
SECTION
2
TABLES
0
TABLE
2
VPORT
5
1
330
0
100
AcDbSymbolTable
70
1
0
VPORT
5
19
330
1
100
AcDbSymbolTableRecord
100
AcDbViewportTableRecord
2
*Active
70
0
10
0
20
0
11
1
21
1
12
17950
22
-11950
13
0
23
0
14
10
24
10
15
10
25
10
16
0
26
0
36
1
17
0
27
0
37
0
40
24100
41
2
42
50
43
0
44
0
50
0
51
0
71
0
72
100
73
1
74
3
75
0
76
1
77
0
78
0
281
0
65
1
110
0
120
0
130
0
111
1
121
0
131
0
112
0
122
1
132
0
79
0
146
0
348
10020
60
7
61
5
292
1
282
1
141
0
142
0
63
250
421
3358443
0
ENDTAB
0
TABLE
2
LTYPE
5
2
330
0
100
AcDbSymbolTable
70
3
0
LTYPE
5
12
330
2
100
AcDbSymbolTableRecord
100
AcDbLinetypeTableRecord
2
ByBlock
70
0
3

72
65
73
0
40
0
0
LTYPE
5
13
330
2
100
AcDbSymbolTableRecord
100
AcDbLinetypeTableRecord
2
ByLayer
70
0
3

72
65
73
0
40
0
0
LTYPE
5
14
330
2
100
AcDbSymbolTableRecord
100
AcDbLinetypeTableRecord
2
Continuous
70
0
3
Solid line
72
65
73
0
40
0
0
ENDTAB
0
TABLE
2
LAYER
5
3
330
0
100
AcDbSymbolTable
70
15
0
LAYER
5
15
330
3
100
AcDbSymbolTableRecord
100
AcDbLayerTableRecord
2
0
70
0
62
7
6
Continuous
370
0
390
0
0
LAYER
5
1A
330
3
100
AcDbSymbolTableRecord
100
AcDbLayerTableRecord
2
OUTLINE
70
0
62
1
6
Continuous
370
0
390
0
0
LAYER
5
1B
330
3
100
AcDbSymbolTableRecord
100
AcDbLayerTableRecord
2
WALL
70
0
62
2
6
Continuous
370
0
390
0
0
LAYER
5
1C
330
3
100
AcDbSymbolTableRecord
100
AcDbLayerTableRecord
2
COLUMN
70
0
62
3
6
Continuous
370
0
390
0
0
LAYER
5
1D
330
3
100
AcDbSymbolTableRecord
100
AcDbLayerTableRecord
2
DOOR
70
0
62
4
6
Continuous
370
0
390
0
0
LAYER
5
1E
330
3
100
AcDbSymbolTableRecord
100
AcDbLayerTableRecord
2
DOCK
70
0
62
5
6
Continuous
370
0
390
0
0
LAYER
5
1F
330
3
100
AcDbSymbolTableRecord
100
AcDbLayerTableRecord
2
RACK
70
0
62
6
6
Continuous
370
0
390
0
0
LAYER
5
20
330
3
100
AcDbSymbolTableRecord
100
AcDbLayerTableRecord
2
PALLET
70
0
62
1
6
Continuous
370
0
390
0
0
LAYER
5
21
330
3
100
AcDbSymbolTableRecord
100
AcDbLayerTableRecord
2
BOX
70
0
62
2
6
Continuous
370
0
390
0
0
LAYER
5
22
330
3
100
AcDbSymbolTableRecord
100
AcDbLayerTableRecord
2
EQUIPMENT
70
0
62
3
6
Continuous
370
0
390
0
0
LAYER
5
23
330
3
100
AcDbSymbolTableRecord
100
AcDbLayerTableRecord
2
AISLE
70
0
62
4
6
Continuous
370
0
390
0
0
LAYER
5
24
330
3
100
AcDbSymbolTableRecord
100
AcDbLayerTableRecord
2
ZONE
70
0
62
5
6
Continuous
370
0
390
0
0
LAYER
5
25
330
3
100
AcDbSymbolTableRecord
100
AcDbLayerTableRecord
2
ROUTE
70
0
62
6
6
Continuous
370
0
390
0
0
LAYER
5
26
330
3
100
AcDbSymbolTableRecord
100
AcDbLayerTableRecord
2
DIMENSION
70
0
62
1
6
Continuous
370
0
390
0
0
LAYER
5
27
330
3
100
AcDbSymbolTableRecord
100
AcDbLayerTableRecord
2
TEXT
70
0
62
2
6
Continuous
370
0
390
0
0
ENDTAB
0
TABLE
2
STYLE
5
4
330
0
100
AcDbSymbolTable
70
1
0
STYLE
5
16
330
4
100
AcDbSymbolTableRecord
100
AcDbTextStyleTableRecord
2
Standard
70
0
40
0
41
1
50
0
71
0
42
1
3
malgun.ttf
4

0
ENDTAB
0
TABLE
2
VIEW
5
5
330
0
100
AcDbSymbolTable
70
0
0
ENDTAB
0
TABLE
2
UCS
5
6
330
0
100
AcDbSymbolTable
70
0
0
ENDTAB
0
TABLE
2
APPID
5
7
330
0
100
AcDbSymbolTable
70
1
0
APPID
5
17
330
7
100
AcDbSymbolTableRecord
100
AcDbRegAppTableRecord
2
ACAD
70
0
0
ENDTAB
0
TABLE
2
DIMSTYLE
5
8
330
0
100
AcDbSymbolTable
70
2
100
AcDbDimStyleTable
0
DIMSTYLE
105
18
330
8
100
AcDbSymbolTableRecord
100
AcDbDimStyleTableRecord
2
Standard
70
0
340
16
0
DIMSTYLE
105
28
330
8
100
AcDbSymbolTableRecord
100
AcDbDimStyleTableRecord
2
WAREHOUSE_MM
70
0
40
1
41
100
42
30
44
60
140
120
144
1
271
0
0
ENDTAB
0
TABLE
2
BLOCK_RECORD
5
9
330
0
100
AcDbSymbolTable
70
19
0
BLOCK_RECORD
5
C
330
9
100
AcDbSymbolTableRecord
100
AcDbBlockTableRecord
2
*Model_Space
70
0
280
1
281
0
0
BLOCK_RECORD
5
F
330
9
100
AcDbSymbolTableRecord
100
AcDbBlockTableRecord
2
*Paper_Space
70
0
280
1
281
0
0
BLOCK_RECORD
5
2A
330
9
100
AcDbSymbolTableRecord
100
AcDbBlockTableRecord
2
EQ0
70
0
280
1
281
0
0
BLOCK_RECORD
5
30
330
9
100
AcDbSymbolTableRecord
100
AcDbBlockTableRecord
2
EQ1
70
0
280
1
281
0
0
BLOCK_RECORD
5
3D
330
9
100
AcDbSymbolTableRecord
100
AcDbBlockTableRecord
2
EQ2
70
0
280
1
281
0
0
BLOCK_RECORD
5
43
330
9
100
AcDbSymbolTableRecord
100
AcDbBlockTableRecord
2
EQ3
70
0
280
1
281
0
0
BLOCK_RECORD
5
49
330
9
100
AcDbSymbolTableRecord
100
AcDbBlockTableRecord
2
EQ4
70
0
280
1
281
0
0
BLOCK_RECORD
5
4F
330
9
100
AcDbSymbolTableRecord
100
AcDbBlockTableRecord
2
EQ5
70
0
280
1
281
0
0
BLOCK_RECORD
5
60
330
9
100
AcDbSymbolTableRecord
100
AcDbBlockTableRecord
2
D0
70
0
280
1
281
0
0
BLOCK_RECORD
5
6C
330
9
100
AcDbSymbolTableRecord
100
AcDbBlockTableRecord
2
D1
70
0
280
1
281
0
0
BLOCK_RECORD
5
78
330
9
100
AcDbSymbolTableRecord
100
AcDbBlockTableRecord
2
D2
70
0
280
1
281
0
0
BLOCK_RECORD
5
84
330
9
100
AcDbSymbolTableRecord
100
AcDbBlockTableRecord
2
D3
70
0
280
1
281
0
0
BLOCK_RECORD
5
90
330
9
100
AcDbSymbolTableRecord
100
AcDbBlockTableRecord
2
D4
70
0
280
1
281
0
0
BLOCK_RECORD
5
9C
330
9
100
AcDbSymbolTableRecord
100
AcDbBlockTableRecord
2
D5
70
0
280
1
281
0
0
BLOCK_RECORD
5
A8
330
9
100
AcDbSymbolTableRecord
100
AcDbBlockTableRecord
2
D6
70
0
280
1
281
0
0
BLOCK_RECORD
5
B4
330
9
100
AcDbSymbolTableRecord
100
AcDbBlockTableRecord
2
D7
70
0
280
1
281
0
0
BLOCK_RECORD
5
C0
330
9
100
AcDbSymbolTableRecord
100
AcDbBlockTableRecord
2
D8
70
0
280
1
281
0
0
BLOCK_RECORD
5
CC
330
9
100
AcDbSymbolTableRecord
100
AcDbBlockTableRecord
2
D9
70
0
280
1
281
0
0
BLOCK_RECORD
5
D8
330
9
100
AcDbSymbolTableRecord
100
AcDbBlockTableRecord
2
D10
70
0
280
1
281
0
0
ENDTAB
0
ENDSEC
0
SECTION
2
BLOCKS
0
BLOCK
5
D
330
C
100
AcDbEntity
8
0
100
AcDbBlockBegin
2
*Model_Space
70
0
10
0
20
0
30
0
3
*Model_Space
1

0
ENDBLK
5
E
100
AcDbEntity
8
0
100
AcDbBlockEnd
0
BLOCK
5
10
330
F
100
AcDbEntity
8
0
100
AcDbBlockBegin
2
*Paper_Space
70
0
10
0
20
0
30
0
3
*Paper_Space
1

0
ENDBLK
5
11
100
AcDbEntity
8
0
100
AcDbBlockEnd
0
BLOCK
5
2B
330
2A
100
AcDbEntity
8
0
100
AcDbBlockBegin
2
EQ0
70
0
10
0
20
0
30
0
3
EQ0
1

0
LWPOLYLINE
5
2D
330
2A
100
AcDbEntity
8
0
100
AcDbPolyline
90
4
70
1
43
0
38
0
39
0
10
-600
20
500
10
600
20
500
10
600
20
-500
10
-600
20
-500
0
ENDBLK
5
2C
100
AcDbEntity
8
0
100
AcDbBlockEnd
0
BLOCK
5
31
330
30
100
AcDbEntity
8
0
100
AcDbBlockBegin
2
EQ1
70
0
10
0
20
0
30
0
3
EQ1
1

0
LWPOLYLINE
5
33
330
30
100
AcDbEntity
8
0
100
AcDbPolyline
90
4
70
1
43
0
38
0
39
0
10
-200
20
150
10
200
20
150
10
200
20
-150
10
-200
20
-150
0
ENDBLK
5
32
100
AcDbEntity
8
0
100
AcDbBlockEnd
0
BLOCK
5
3E
330
3D
100
AcDbEntity
8
0
100
AcDbBlockBegin
2
EQ2
70
0
10
0
20
0
30
0
3
EQ2
1

0
LWPOLYLINE
5
40
330
3D
100
AcDbEntity
8
0
100
AcDbPolyline
90
4
70
1
43
0
38
0
39
0
10
-600
20
60
10
600
20
60
10
600
20
-60
10
-600
20
-60
0
ENDBLK
5
3F
100
AcDbEntity
8
0
100
AcDbBlockEnd
0
BLOCK
5
44
330
43
100
AcDbEntity
8
0
100
AcDbBlockBegin
2
EQ3
70
0
10
0
20
0
30
0
3
EQ3
1

0
LWPOLYLINE
5
46
330
43
100
AcDbEntity
8
0
100
AcDbPolyline
90
4
70
1
43
0
38
0
39
0
10
-4000
20
600
10
4000
20
600
10
4000
20
-600
10
-4000
20
-600
0
ENDBLK
5
45
100
AcDbEntity
8
0
100
AcDbBlockEnd
0
BLOCK
5
4A
330
49
100
AcDbEntity
8
0
100
AcDbBlockBegin
2
EQ4
70
0
10
0
20
0
30
0
3
EQ4
1

0
LWPOLYLINE
5
4C
330
49
100
AcDbEntity
8
0
100
AcDbPolyline
90
4
70
1
43
0
38
0
39
0
10
-300
20
300
10
300
20
300
10
300
20
-300
10
-300
20
-300
0
ENDBLK
5
4B
100
AcDbEntity
8
0
100
AcDbBlockEnd
0
BLOCK
5
50
330
4F
100
AcDbEntity
8
0
100
AcDbBlockBegin
2
EQ5
70
0
10
0
20
0
30
0
3
EQ5
1

0
LWPOLYLINE
5
52
330
4F
100
AcDbEntity
8
0
100
AcDbPolyline
90
4
70
1
43
0
38
0
39
0
10
-500
20
500
10
500
20
500
10
500
20
-500
10
-500
20
-500
0
ENDBLK
5
51
100
AcDbEntity
8
0
100
AcDbBlockEnd
0
BLOCK
5
61
330
60
100
AcDbEntity
8
0
100
AcDbBlockBegin
2
D0
70
0
10
0
20
0
30
0
3
D0
1

0
LINE
5
63
330
60
100
AcDbEntity
8
0
100
AcDbLine
10
0
20
0
30
0
11
0
21
1000
31
0
0
LINE
5
64
330
60
100
AcDbEntity
8
0
100
AcDbLine
10
36000
20
0
30
0
11
36000
21
1000
31
0
0
LINE
5
65
330
60
100
AcDbEntity
8
0
100
AcDbLine
10
0
20
1000
30
0
11
36000
21
1000
31
0
0
LINE
5
66
330
60
100
AcDbEntity
8
0
100
AcDbLine
10
0
20
1000
30
0
11
100
21
955
31
0
0
LINE
5
67
330
60
100
AcDbEntity
8
0
100
AcDbLine
10
0
20
1000
30
0
11
100
21
1045
31
0
0
LINE
5
68
330
60
100
AcDbEntity
8
0
100
AcDbLine
10
36000
20
1000
30
0
11
35900
21
1045
31
0
0
LINE
5
69
330
60
100
AcDbEntity
8
0
100
AcDbLine
10
36000
20
1000
30
0
11
35900
21
955
31
0
0
TEXT
5
6A
330
60
100
AcDbEntity
8
0
100
AcDbText
10
18000
20
1100
30
0
40
120
1
36000
7
STANDARD
100
AcDbText
0
ENDBLK
5
62
100
AcDbEntity
8
0
100
AcDbBlockEnd
0
BLOCK
5
6D
330
6C
100
AcDbEntity
8
0
100
AcDbBlockBegin
2
D1
70
0
10
0
20
0
30
0
3
D1
1

0
LINE
5
6F
330
6C
100
AcDbEntity
8
0
100
AcDbLine
10
0
20
0
30
0
11
-1000
21
0
31
0
0
LINE
5
70
330
6C
100
AcDbEntity
8
0
100
AcDbLine
10
0
20
-24000
30
0
11
-1000
21
-24000
31
0
0
LINE
5
71
330
6C
100
AcDbEntity
8
0
100
AcDbLine
10
-1000
20
0
30
0
11
-1000
21
-24000
31
0
0
LINE
5
72
330
6C
100
AcDbEntity
8
0
100
AcDbLine
10
-1000
20
0
30
0
11
-1045
21
-100
31
0
0
LINE
5
73
330
6C
100
AcDbEntity
8
0
100
AcDbLine
10
-1000
20
0
30
0
11
-955
21
-100
31
0
0
LINE
5
74
330
6C
100
AcDbEntity
8
0
100
AcDbLine
10
-1000
20
-24000
30
0
11
-955
21
-23900
31
0
0
LINE
5
75
330
6C
100
AcDbEntity
8
0
100
AcDbLine
10
-1000
20
-24000
30
0
11
-1045
21
-23900
31
0
0
TEXT
5
76
330
6C
100
AcDbEntity
8
0
100
AcDbText
10
-1000
20
-11900
30
0
40
120
1
24000
7
STANDARD
100
AcDbText
0
ENDBLK
5
6E
100
AcDbEntity
8
0
100
AcDbBlockEnd
0
BLOCK
5
79
330
78
100
AcDbEntity
8
0
100
AcDbBlockBegin
2
D2
70
0
10
0
20
0
30
0
3
D2
1

0
LINE
5
7B
330
78
100
AcDbEntity
8
0
100
AcDbLine
10
3400
20
-4500
30
0
11
3400
21
-4250
31
0
0
LINE
5
7C
330
78
100
AcDbEntity
8
0
100
AcDbLine
10
4600
20
-4500
30
0
11
4600
21
-4250
31
0
0
LINE
5
7D
330
78
100
AcDbEntity
8
0
100
AcDbLine
10
3400
20
-4250
30
0
11
4600
21
-4250
31
0
0
LINE
5
7E
330
78
100
AcDbEntity
8
0
100
AcDbLine
10
3400
20
-4250
30
0
11
3500
21
-4295
31
0
0
LINE
5
7F
330
78
100
AcDbEntity
8
0
100
AcDbLine
10
3400
20
-4250
30
0
11
3500
21
-4205
31
0
0
LINE
5
80
330
78
100
AcDbEntity
8
0
100
AcDbLine
10
4600
20
-4250
30
0
11
4500
21
-4205
31
0
0
LINE
5
81
330
78
100
AcDbEntity
8
0
100
AcDbLine
10
4600
20
-4250
30
0
11
4500
21
-4295
31
0
0
TEXT
5
82
330
78
100
AcDbEntity
8
0
100
AcDbText
10
4000
20
-4150
30
0
40
120
1
1200
7
STANDARD
100
AcDbText
0
ENDBLK
5
7A
100
AcDbEntity
8
0
100
AcDbBlockEnd
0
BLOCK
5
85
330
84
100
AcDbEntity
8
0
100
AcDbBlockBegin
2
D3
70
0
10
0
20
0
30
0
3
D3
1

0
LINE
5
87
330
84
100
AcDbEntity
8
0
100
AcDbLine
10
4600
20
-4500
30
0
11
4850
21
-4500
31
0
0
LINE
5
88
330
84
100
AcDbEntity
8
0
100
AcDbLine
10
4600
20
-5500
30
0
11
4850
21
-5500
31
0
0
LINE
5
89
330
84
100
AcDbEntity
8
0
100
AcDbLine
10
4850
20
-4500
30
0
11
4850
21
-5500
31
0
0
LINE
5
8A
330
84
100
AcDbEntity
8
0
100
AcDbLine
10
4850
20
-4500
30
0
11
4805
21
-4600
31
0
0
LINE
5
8B
330
84
100
AcDbEntity
8
0
100
AcDbLine
10
4850
20
-4500
30
0
11
4895
21
-4600
31
0
0
LINE
5
8C
330
84
100
AcDbEntity
8
0
100
AcDbLine
10
4850
20
-5500
30
0
11
4895
21
-5400
31
0
0
LINE
5
8D
330
84
100
AcDbEntity
8
0
100
AcDbLine
10
4850
20
-5500
30
0
11
4805
21
-5400
31
0
0
TEXT
5
8E
330
84
100
AcDbEntity
8
0
100
AcDbText
10
4850
20
-4900
30
0
40
120
1
1000
7
STANDARD
100
AcDbText
0
ENDBLK
5
86
100
AcDbEntity
8
0
100
AcDbBlockEnd
0
BLOCK
5
91
330
90
100
AcDbEntity
8
0
100
AcDbBlockBegin
2
D4
70
0
10
0
20
0
30
0
3
D4
1

0
LINE
5
93
330
90
100
AcDbEntity
8
0
100
AcDbLine
10
8400
20
-4940
30
0
11
8400
21
-4690
31
0
0
LINE
5
94
330
90
100
AcDbEntity
8
0
100
AcDbLine
10
9600
20
-4940
30
0
11
9600
21
-4690
31
0
0
LINE
5
95
330
90
100
AcDbEntity
8
0
100
AcDbLine
10
8400
20
-4690
30
0
11
9600
21
-4690
31
0
0
LINE
5
96
330
90
100
AcDbEntity
8
0
100
AcDbLine
10
8400
20
-4690
30
0
11
8500
21
-4735
31
0
0
LINE
5
97
330
90
100
AcDbEntity
8
0
100
AcDbLine
10
8400
20
-4690
30
0
11
8500
21
-4645
31
0
0
LINE
5
98
330
90
100
AcDbEntity
8
0
100
AcDbLine
10
9600
20
-4690
30
0
11
9500
21
-4645
31
0
0
LINE
5
99
330
90
100
AcDbEntity
8
0
100
AcDbLine
10
9600
20
-4690
30
0
11
9500
21
-4735
31
0
0
TEXT
5
9A
330
90
100
AcDbEntity
8
0
100
AcDbText
10
9000
20
-4590
30
0
40
120
1
1200
7
STANDARD
100
AcDbText
0
ENDBLK
5
92
100
AcDbEntity
8
0
100
AcDbBlockEnd
0
BLOCK
5
9D
330
9C
100
AcDbEntity
8
0
100
AcDbBlockBegin
2
D5
70
0
10
0
20
0
30
0
3
D5
1

0
LINE
5
9F
330
9C
100
AcDbEntity
8
0
100
AcDbLine
10
9600
20
-4940
30
0
11
9850
21
-4940
31
0
0
LINE
5
A0
330
9C
100
AcDbEntity
8
0
100
AcDbLine
10
9600
20
-5060
30
0
11
9850
21
-5060
31
0
0
LINE
5
A1
330
9C
100
AcDbEntity
8
0
100
AcDbLine
10
9850
20
-4940
30
0
11
9850
21
-5060
31
0
0
LINE
5
A2
330
9C
100
AcDbEntity
8
0
100
AcDbLine
10
9850
20
-4940
30
0
11
9805
21
-5040
31
0
0
LINE
5
A3
330
9C
100
AcDbEntity
8
0
100
AcDbLine
10
9850
20
-4940
30
0
11
9895
21
-5040
31
0
0
LINE
5
A4
330
9C
100
AcDbEntity
8
0
100
AcDbLine
10
9850
20
-5060
30
0
11
9895
21
-4960
31
0
0
LINE
5
A5
330
9C
100
AcDbEntity
8
0
100
AcDbLine
10
9850
20
-5060
30
0
11
9805
21
-4960
31
0
0
TEXT
5
A6
330
9C
100
AcDbEntity
8
0
100
AcDbText
10
9850
20
-4900
30
0
40
120
1
120
7
STANDARD
100
AcDbText
0
ENDBLK
5
9E
100
AcDbEntity
8
0
100
AcDbBlockEnd
0
BLOCK
5
A9
330
A8
100
AcDbEntity
8
0
100
AcDbBlockBegin
2
D6
70
0
10
0
20
0
30
0
3
D6
1

0
LINE
5
AB
330
A8
100
AcDbEntity
8
0
100
AcDbLine
10
14747.308806541883
20
-12404.163056034262
30
0
11
14570.532111245246
21
-12227.386360737624
31
0
0
LINE
5
AC
330
A8
100
AcDbEntity
8
0
100
AcDbLine
10
20404.163056034264
20
-6747.3088065418815
30
0
11
20227.386360737626
21
-6570.532111245245
31
0
0
LINE
5
AD
330
A8
100
AcDbEntity
8
0
100
AcDbLine
10
14570.532111245246
20
-12227.386360737624
30
0
11
20227.386360737626
21
-6570.532111245245
31
0
0
LINE
5
AE
330
A8
100
AcDbEntity
8
0
100
AcDbLine
10
14570.532111245246
20
-12227.386360737624
30
0
11
14673.062594517294
21
-12188.495487772365
31
0
0
LINE
5
AF
330
A8
100
AcDbEntity
8
0
100
AcDbLine
10
14570.532111245246
20
-12227.386360737624
30
0
11
14609.422984210505
21
-12124.855877465576
31
0
0
LINE
5
B0
330
A8
100
AcDbEntity
8
0
100
AcDbLine
10
20227.386360737626
20
-6570.532111245245
30
0
11
20124.855877465576
21
-6609.422984210505
31
0
0
LINE
5
B1
330
A8
100
AcDbEntity
8
0
100
AcDbLine
10
20227.386360737626
20
-6570.532111245245
30
0
11
20188.495487772365
21
-6673.062594517294
31
0
0
TEXT
5
B2
330
A8
100
AcDbEntity
8
0
100
AcDbText
10
17398.959235991435
20
-9298.959235991435
30
0
40
120
1
8000
7
STANDARD
100
AcDbText
0
ENDBLK
5
AA
100
AcDbEntity
8
0
100
AcDbBlockEnd
0
BLOCK
5
B5
330
B4
100
AcDbEntity
8
0
100
AcDbBlockBegin
2
D7
70
0
10
0
20
0
30
0
3
D7
1

0
LINE
5
B7
330
B4
100
AcDbEntity
8
0
100
AcDbLine
10
20404.163056034264
20
-6747.3088065418815
30
0
11
20580.9397513309
21
-6570.532111245245
31
0
0
LINE
5
B8
330
B4
100
AcDbEntity
8
0
100
AcDbLine
10
21252.69119345812
20
-7595.836943965739
30
0
11
21429.467888754756
21
-7419.060248669102
31
0
0
LINE
5
B9
330
B4
100
AcDbEntity
8
0
100
AcDbLine
10
20580.9397513309
20
-6570.532111245245
30
0
11
21429.467888754756
21
-7419.060248669102
31
0
0
LINE
5
BA
330
B4
100
AcDbEntity
8
0
100
AcDbLine
10
20580.9397513309
20
-6570.532111245245
30
0
11
20619.830624296163
21
-6673.062594517294
31
0
0
LINE
5
BB
330
B4
100
AcDbEntity
8
0
100
AcDbLine
10
20580.9397513309
20
-6570.532111245245
30
0
11
20683.47023460295
21
-6609.422984210505
31
0
0
LINE
5
BC
330
B4
100
AcDbEntity
8
0
100
AcDbLine
10
21429.467888754756
20
-7419.060248669102
30
0
11
21390.577015789495
21
-7316.529765397053
31
0
0
LINE
5
BD
330
B4
100
AcDbEntity
8
0
100
AcDbLine
10
21429.467888754756
20
-7419.060248669102
30
0
11
21326.937405482706
21
-7380.169375703842
31
0
0
TEXT
5
BE
330
B4
100
AcDbEntity
8
0
100
AcDbText
10
21005.20382004283
20
-6894.796179957173
30
0
40
120
1
1200
7
STANDARD
100
AcDbText
0
ENDBLK
5
B6
100
AcDbEntity
8
0
100
AcDbBlockEnd
0
BLOCK
5
C1
330
C0
100
AcDbEntity
8
0
100
AcDbBlockBegin
2
D8
70
0
10
0
20
0
30
0
3
D8
1

0
LINE
5
C3
330
C0
100
AcDbEntity
8
0
100
AcDbLine
10
7400.000453599462
20
-15499.999734117153
30
0
11
7400.000453599462
21
-15249.999734117153
31
0
0
LINE
5
C4
330
C0
100
AcDbEntity
8
0
100
AcDbLine
10
8600.000453599461
20
-15499.999734117153
30
0
11
8600.000453599461
21
-15249.999734117153
31
0
0
LINE
5
C5
330
C0
100
AcDbEntity
8
0
100
AcDbLine
10
7400.000453599462
20
-15249.999734117153
30
0
11
8600.000453599461
21
-15249.999734117153
31
0
0
LINE
5
C6
330
C0
100
AcDbEntity
8
0
100
AcDbLine
10
7400.000453599462
20
-15249.999734117153
30
0
11
7500.000453599462
21
-15294.999734117153
31
0
0
LINE
5
C7
330
C0
100
AcDbEntity
8
0
100
AcDbLine
10
7400.000453599462
20
-15249.999734117153
30
0
11
7500.000453599462
21
-15204.999734117153
31
0
0
LINE
5
C8
330
C0
100
AcDbEntity
8
0
100
AcDbLine
10
8600.000453599461
20
-15249.999734117153
30
0
11
8500.000453599461
21
-15204.999734117153
31
0
0
LINE
5
C9
330
C0
100
AcDbEntity
8
0
100
AcDbLine
10
8600.000453599461
20
-15249.999734117153
30
0
11
8500.000453599461
21
-15294.999734117153
31
0
0
TEXT
5
CA
330
C0
100
AcDbEntity
8
0
100
AcDbText
10
8000.000453599461
20
-15149.999734117153
30
0
40
120
1
1200
7
STANDARD
100
AcDbText
0
ENDBLK
5
C2
100
AcDbEntity
8
0
100
AcDbBlockEnd
0
BLOCK
5
CD
330
CC
100
AcDbEntity
8
0
100
AcDbBlockBegin
2
D9
70
0
10
0
20
0
30
0
3
D9
1

0
LINE
5
CF
330
CC
100
AcDbEntity
8
0
100
AcDbLine
10
8600.000453599461
20
-15499.999734117153
30
0
11
8850.000453599461
21
-15499.999734117153
31
0
0
LINE
5
D0
330
CC
100
AcDbEntity
8
0
100
AcDbLine
10
8600.000453599461
20
-16499.999734117155
30
0
11
8850.000453599461
21
-16499.999734117155
31
0
0
LINE
5
D1
330
CC
100
AcDbEntity
8
0
100
AcDbLine
10
8850.000453599461
20
-15499.999734117153
30
0
11
8850.000453599461
21
-16499.999734117155
31
0
0
LINE
5
D2
330
CC
100
AcDbEntity
8
0
100
AcDbLine
10
8850.000453599461
20
-15499.999734117153
30
0
11
8805.000453599461
21
-15599.999734117153
31
0
0
LINE
5
D3
330
CC
100
AcDbEntity
8
0
100
AcDbLine
10
8850.000453599461
20
-15499.999734117153
30
0
11
8895.000453599461
21
-15599.999734117153
31
0
0
LINE
5
D4
330
CC
100
AcDbEntity
8
0
100
AcDbLine
10
8850.000453599461
20
-16499.999734117155
30
0
11
8895.000453599461
21
-16399.999734117155
31
0
0
LINE
5
D5
330
CC
100
AcDbEntity
8
0
100
AcDbLine
10
8850.000453599461
20
-16499.999734117155
30
0
11
8805.000453599461
21
-16399.999734117155
31
0
0
TEXT
5
D6
330
CC
100
AcDbEntity
8
0
100
AcDbText
10
8850.000453599461
20
-15899.999734117155
30
0
40
120
1
1000
7
STANDARD
100
AcDbText
0
ENDBLK
5
CE
100
AcDbEntity
8
0
100
AcDbBlockEnd
0
BLOCK
5
D9
330
D8
100
AcDbEntity
8
0
100
AcDbBlockBegin
2
D10
70
0
10
0
20
0
30
0
3
D10
1

0
LINE
5
DB
330
D8
100
AcDbEntity
8
0
100
AcDbLine
10
12000.001010237069
20
-17999.999099861117
30
0
11
12000.001010237069
21
-18299.999099861117
31
0
0
LINE
5
DC
330
D8
100
AcDbEntity
8
0
100
AcDbLine
10
15000.000505118536
20
-17999.999099861117
30
0
11
15000.000505118536
21
-18299.999099861117
31
0
0
LINE
5
DD
330
D8
100
AcDbEntity
8
0
100
AcDbLine
10
12000.001010237069
20
-18299.999099861117
30
0
11
15000.000505118536
21
-18299.999099861117
31
0
0
LINE
5
DE
330
D8
100
AcDbEntity
8
0
100
AcDbLine
10
12000.001010237069
20
-18299.999099861117
30
0
11
12100.001010237069
21
-18344.999099861117
31
0
0
LINE
5
DF
330
D8
100
AcDbEntity
8
0
100
AcDbLine
10
12000.001010237069
20
-18299.999099861117
30
0
11
12100.001010237069
21
-18254.999099861117
31
0
0
LINE
5
E0
330
D8
100
AcDbEntity
8
0
100
AcDbLine
10
15000.000505118536
20
-18299.999099861117
30
0
11
14900.000505118536
21
-18254.999099861117
31
0
0
LINE
5
E1
330
D8
100
AcDbEntity
8
0
100
AcDbLine
10
15000.000505118536
20
-18299.999099861117
30
0
11
14900.000505118536
21
-18344.999099861117
31
0
0
TEXT
5
E2
330
D8
100
AcDbEntity
8
0
100
AcDbText
10
13500.000757677803
20
-18199.999099861117
30
0
40
120
1
3000
7
STANDARD
100
AcDbText
0
ENDBLK
5
DA
100
AcDbEntity
8
0
100
AcDbBlockEnd
0
ENDSEC
0
SECTION
2
ENTITIES
0
LWPOLYLINE
5
29
330
C
100
AcDbEntity
8
OUTLINE
100
AcDbPolyline
90
4
70
1
43
0
38
0
39
0
10
0
20
0
10
36000
20
0
10
36000
20
-24000
10
0
20
-24000
0
INSERT
5
2E
330
C
100
AcDbEntity
8
PALLET
100
AcDbBlockReference
2
EQ0
10
4000
20
-5000
30
0
41
1
42
1
43
1
50
0
66
0
70
1
71
1
44
0
45
0
0
TEXT
5
2F
330
C
100
AcDbEntity
8
TEXT
100
AcDbText
10
4000
20
-5000
30
0
40
120
1
팔레트
7
STANDARD
100
AcDbText
0
INSERT
5
34
330
C
100
AcDbEntity
8
BOX
100
AcDbBlockReference
2
EQ1
10
3600
20
-4650
30
0
41
1
42
1
43
1
50
0
66
0
70
1
71
1
44
0
45
0
0
INSERT
5
35
330
C
100
AcDbEntity
8
BOX
100
AcDbBlockReference
2
EQ1
10
4000
20
-4650
30
0
41
1
42
1
43
1
50
0
66
0
70
1
71
1
44
0
45
0
0
INSERT
5
36
330
C
100
AcDbEntity
8
BOX
100
AcDbBlockReference
2
EQ1
10
4400
20
-4650
30
0
41
1
42
1
43
1
50
0
66
0
70
1
71
1
44
0
45
0
0
INSERT
5
37
330
C
100
AcDbEntity
8
BOX
100
AcDbBlockReference
2
EQ1
10
3600
20
-4950
30
0
41
1
42
1
43
1
50
0
66
0
70
1
71
1
44
0
45
0
0
INSERT
5
38
330
C
100
AcDbEntity
8
BOX
100
AcDbBlockReference
2
EQ1
10
4000
20
-4950
30
0
41
1
42
1
43
1
50
0
66
0
70
1
71
1
44
0
45
0
0
INSERT
5
39
330
C
100
AcDbEntity
8
BOX
100
AcDbBlockReference
2
EQ1
10
4400
20
-4950
30
0
41
1
42
1
43
1
50
0
66
0
70
1
71
1
44
0
45
0
0
INSERT
5
3A
330
C
100
AcDbEntity
8
BOX
100
AcDbBlockReference
2
EQ1
10
3600
20
-5250
30
0
41
1
42
1
43
1
50
0
66
0
70
1
71
1
44
0
45
0
0
INSERT
5
3B
330
C
100
AcDbEntity
8
BOX
100
AcDbBlockReference
2
EQ1
10
4000
20
-5250
30
0
41
1
42
1
43
1
50
0
66
0
70
1
71
1
44
0
45
0
0
INSERT
5
3C
330
C
100
AcDbEntity
8
BOX
100
AcDbBlockReference
2
EQ1
10
4400
20
-5250
30
0
41
1
42
1
43
1
50
0
66
0
70
1
71
1
44
0
45
0
0
INSERT
5
41
330
C
100
AcDbEntity
8
TEXT
100
AcDbBlockReference
2
EQ2
10
9000
20
-5000
30
0
41
1
42
1
43
1
50
0
66
0
70
1
71
1
44
0
45
0
0
TEXT
5
42
330
C
100
AcDbEntity
8
TEXT
100
AcDbText
10
9000
20
-5000
30
0
40
120
1
출하 검사
7
STANDARD
100
AcDbText
0
INSERT
5
47
330
C
100
AcDbEntity
8
RACK
100
AcDbBlockReference
2
EQ3
10
18000
20
-10000
30
0
41
1
42
1
43
1
50
45
66
0
70
1
71
1
44
0
45
0
0
TEXT
5
48
330
C
100
AcDbEntity
8
TEXT
100
AcDbText
10
18000
20
-10000
30
0
40
120
1
팔레트 랙
7
STANDARD
100
AcDbText
0
INSERT
5
4D
330
C
100
AcDbEntity
8
EQUIPMENT
100
AcDbBlockReference
2
EQ4
10
2000
20
-10000
30
0
41
1
42
1
43
1
50
0
66
0
70
1
71
1
44
0
45
0
0
TEXT
5
4E
330
C
100
AcDbEntity
8
TEXT
100
AcDbText
10
2000
20
-10000
30
0
40
120
1
작업자
7
STANDARD
100
AcDbText
0
INSERT
5
53
330
C
100
AcDbEntity
8
ROUTE
100
AcDbBlockReference
2
EQ5
10
3000
20
-10000
30
0
41
1
42
1
43
1
50
0
66
0
70
1
71
1
44
0
45
0
0
TEXT
5
54
330
C
100
AcDbEntity
8
TEXT
100
AcDbText
10
3000
20
-10000
30
0
40
120
1
이동 목적지
7
STANDARD
100
AcDbText
0
INSERT
5
55
330
C
100
AcDbEntity
8
PALLET
100
AcDbBlockReference
2
EQ0
10
8000.000453599462
20
-15999.999734117153
30
0
41
1
42
1
43
1
50
0
66
0
70
1
71
1
44
0
45
0
0
TEXT
5
56
330
C
100
AcDbEntity
8
TEXT
100
AcDbText
10
8000.000453599462
20
-15999.999734117153
30
0
40
120
1
팔레트
7
STANDARD
100
AcDbText
0
INSERT
5
57
330
C
100
AcDbEntity
8
BOX
100
AcDbBlockReference
2
EQ1
10
7600.000453599461
20
-15649.999734117155
30
0
41
1
42
1
43
1
50
0
66
0
70
1
71
1
44
0
45
0
0
INSERT
5
58
330
C
100
AcDbEntity
8
BOX
100
AcDbBlockReference
2
EQ1
10
8000.000453599462
20
-15649.999734117155
30
0
41
1
42
1
43
1
50
0
66
0
70
1
71
1
44
0
45
0
0
INSERT
5
59
330
C
100
AcDbEntity
8
BOX
100
AcDbBlockReference
2
EQ1
10
8400.000453599463
20
-15649.999734117155
30
0
41
1
42
1
43
1
50
0
66
0
70
1
71
1
44
0
45
0
0
INSERT
5
5A
330
C
100
AcDbEntity
8
BOX
100
AcDbBlockReference
2
EQ1
10
7600.000453599461
20
-15949.999734117153
30
0
41
1
42
1
43
1
50
0
66
0
70
1
71
1
44
0
45
0
0
INSERT
5
5B
330
C
100
AcDbEntity
8
BOX
100
AcDbBlockReference
2
EQ1
10
8000.000453599462
20
-15949.999734117153
30
0
41
1
42
1
43
1
50
0
66
0
70
1
71
1
44
0
45
0
0
INSERT
5
5C
330
C
100
AcDbEntity
8
BOX
100
AcDbBlockReference
2
EQ1
10
8400.000453599463
20
-15949.999734117153
30
0
41
1
42
1
43
1
50
0
66
0
70
1
71
1
44
0
45
0
0
INSERT
5
5D
330
C
100
AcDbEntity
8
BOX
100
AcDbBlockReference
2
EQ1
10
7600.000453599461
20
-16249.999734117153
30
0
41
1
42
1
43
1
50
0
66
0
70
1
71
1
44
0
45
0
0
INSERT
5
5E
330
C
100
AcDbEntity
8
BOX
100
AcDbBlockReference
2
EQ1
10
8000.000453599462
20
-16249.999734117153
30
0
41
1
42
1
43
1
50
0
66
0
70
1
71
1
44
0
45
0
0
INSERT
5
5F
330
C
100
AcDbEntity
8
BOX
100
AcDbBlockReference
2
EQ1
10
8400.000453599463
20
-16249.999734117153
30
0
41
1
42
1
43
1
50
0
66
0
70
1
71
1
44
0
45
0
0
DIMENSION
5
6B
330
C
100
AcDbEntity
8
DIMENSION
100
AcDbDimension
2
D0
10
0
20
1000
30
0
11
18000
21
1000
31
0
70
1
71
5
42
36000
3
WAREHOUSE_MM
100
AcDbAlignedDimension
13
0
23
0
33
0
14
36000
24
0
34
0
0
DIMENSION
5
77
330
C
100
AcDbEntity
8
DIMENSION
100
AcDbDimension
2
D1
10
-1000
20
0
30
0
11
-1000
21
-12000
31
0
70
1
71
5
42
24000
3
WAREHOUSE_MM
100
AcDbAlignedDimension
13
0
23
0
33
0
14
0
24
-24000
34
0
0
DIMENSION
5
83
330
C
100
AcDbEntity
8
DIMENSION
100
AcDbDimension
2
D2
10
3400
20
-4250
30
0
11
4000
21
-4250
31
0
70
1
71
5
42
1200
3
WAREHOUSE_MM
100
AcDbAlignedDimension
13
3400
23
-4500
33
0
14
4600
24
-4500
34
0
0
DIMENSION
5
8F
330
C
100
AcDbEntity
8
DIMENSION
100
AcDbDimension
2
D3
10
4850
20
-4500
30
0
11
4850
21
-5000
31
0
70
1
71
5
42
1000
3
WAREHOUSE_MM
100
AcDbAlignedDimension
13
4600
23
-4500
33
0
14
4600
24
-5500
34
0
0
DIMENSION
5
9B
330
C
100
AcDbEntity
8
DIMENSION
100
AcDbDimension
2
D4
10
8400
20
-4690
30
0
11
9000
21
-4690
31
0
70
1
71
5
42
1200
3
WAREHOUSE_MM
100
AcDbAlignedDimension
13
8400
23
-4940
33
0
14
9600
24
-4940
34
0
0
DIMENSION
5
A7
330
C
100
AcDbEntity
8
DIMENSION
100
AcDbDimension
2
D5
10
9850
20
-4940
30
0
11
9850
21
-5000
31
0
70
1
71
5
42
120
3
WAREHOUSE_MM
100
AcDbAlignedDimension
13
9600
23
-4940
33
0
14
9600
24
-5060
34
0
0
DIMENSION
5
B3
330
C
100
AcDbEntity
8
DIMENSION
100
AcDbDimension
2
D6
10
14570.532111245246
20
-12227.386360737624
30
0
11
17398.959235991435
21
-9398.959235991435
31
0
70
1
71
5
42
8000.000000000001
3
WAREHOUSE_MM
100
AcDbAlignedDimension
13
14747.308806541883
23
-12404.163056034262
33
0
14
20404.163056034264
24
-6747.3088065418815
34
0
0
DIMENSION
5
BF
330
C
100
AcDbEntity
8
DIMENSION
100
AcDbDimension
2
D7
10
20580.9397513309
20
-6570.532111245245
30
0
11
21005.20382004283
21
-6994.796179957173
31
0
70
1
71
5
42
1199.9999999999986
3
WAREHOUSE_MM
100
AcDbAlignedDimension
13
20404.163056034264
23
-6747.3088065418815
33
0
14
21252.69119345812
24
-7595.836943965739
34
0
0
DIMENSION
5
CB
330
C
100
AcDbEntity
8
DIMENSION
100
AcDbDimension
2
D8
10
7400.000453599462
20
-15249.999734117153
30
0
11
8000.000453599461
21
-15249.999734117153
31
0
70
1
71
5
42
1199.999999999999
3
WAREHOUSE_MM
100
AcDbAlignedDimension
13
7400.000453599462
23
-15499.999734117153
33
0
14
8600.000453599461
24
-15499.999734117153
34
0
0
DIMENSION
5
D7
330
C
100
AcDbEntity
8
DIMENSION
100
AcDbDimension
2
D9
10
8850.000453599461
20
-15499.999734117153
30
0
11
8850.000453599461
21
-15999.999734117155
31
0
70
1
71
5
42
1000.0000000000018
3
WAREHOUSE_MM
100
AcDbAlignedDimension
13
8600.000453599461
23
-15499.999734117153
33
0
14
8600.000453599461
24
-16499.999734117155
34
0
0
DIMENSION
5
E3
330
C
100
AcDbEntity
8
DIMENSION
100
AcDbDimension
2
D10
10
12000.001010237069
20
-18299.999099861117
30
0
11
13500.000757677803
21
-18299.999099861117
31
0
70
1
71
5
42
2999.9994948814674
3
WAREHOUSE_MM
100
AcDbAlignedDimension
13
12000.001010237069
23
-17999.999099861117
33
0
14
15000.000505118536
24
-17999.999099861117
34
0
0
ENDSEC
0
SECTION
2
OBJECTS
0
DICTIONARY
5
A
330
0
100
AcDbDictionary
281
1
3
ACAD_GROUP
350
B
0
DICTIONARY
5
B
330
A
100
AcDbDictionary
281
0
0
ENDSEC
0
EOF